Coordinates
version=1
nRows=12
nColumns=23
inDegrees=yes

Units are S.I. units (second, meters, Newtons, ...)
If the header above contains a line with 'inDegrees', this indicates whether rotational values are in degrees (yes) or radians (no).

endheader
time	pelvis_tilt	pelvis_list	pelvis_rotation	pelvis_tx	pelvis_ty	pelvis_tz	hip_flexion_r	hip_adduction_r	hip_rotation_r	knee_angle_r	knee_angle_r_beta	ankle_angle_r	subtalar_angle_r	mtp_angle_r	hip_flexion_l	hip_adduction_l	hip_rotation_l	knee_angle_l	knee_angle_l_beta	ankle_angle_l	subtalar_angle_l	mtp_angle_l
      0.00000000	     -1.14775443	      0.82776345	     -4.26724447	      2.23003876	      1.01938491	      1.00747901	     -4.83306484	     -0.08780463	     -0.34329491	     23.97600778	      0.41846028	     17.80350356	      3.68033834	      0.00000000	     26.15971956	     -2.46568972	     -6.99616624	     62.09092166	      1.08369102	      3.66903521	    -14.04705141	      0.00000000
      0.00666667	     -1.54277766	      1.09696655	     -4.29229166	      2.23158054	      1.02328760	      1.00699219	     -5.75928426	     -0.60744578	     -0.93244244	     22.97681681	      0.40102110	     15.41471261	      4.26693952	      0.00000000	     26.72337281	     -2.21562231	     -7.55902956	     59.15883768	      1.03251650	      3.72838438	    -13.40627684	      0.00000000
      0.01333333	     -2.07337892	      1.38291980	     -4.38173974	      2.23305408	      1.02683424	      1.00655687	     -6.48030903	     -1.10474622	     -1.31605146	     22.05892751	      0.38500091	     13.05782961	      4.68397610	      0.00000000	     27.31808093	     -1.94277826	     -8.15104272	     56.08437338	      0.97885697	      3.86537687	    -12.55674756	      0.00000000
      0.02000000	     -2.79100047	      1.72646512	     -4.49325766	      2.23444393	      1.02994084	      1.00611349	     -6.85921827	     -1.66945619	     -1.71279264	     21.36574570	      0.37290261	     10.74107967	      5.07477735	      0.00000000	     27.99904216	     -1.56570357	     -8.69348099	     52.83160564	      0.92208547	      3.95065173	    -11.66594107	      0.00000000
      0.02666667	     -3.24318605	      1.99824768	     -4.58124598	      2.23593278	      1.03319814	      1.00563610	     -7.54501142	     -2.14305198	     -1.98694151	     20.59955470	      0.35953005	      8.37188704	      5.37122498	      0.00000000	     28.24728619	     -1.20038530	     -9.17091240	     49.38989487	      0.86201628	      4.04847467	    -10.61124849	      0.00000000
      0.03333333	     -3.93570450	      2.28575881	     -4.67561545	      2.23736140	      1.03586918	      1.00515990	     -7.75856791	     -2.63832665	     -2.26040642	     20.21282682	      0.35278038	      6.13728154	      5.60710477	      0.00000000	     28.65487370	     -0.78445517	     -9.55820157	     45.80896094	      0.79951720	      4.11902228	     -9.49507811	      0.00000000
      0.04000000	     -4.80779482	      2.45904817	     -4.75000902	      2.23868491	      1.03802606	      1.00465526	     -7.62643532	     -3.00159171	     -2.49025100	     20.08744942	      0.35059213	      3.96779080	      5.88654347	      0.00000000	     29.18552236	     -0.45499212	     -9.79084275	     42.17729219	      0.73613262	      4.23097268	     -8.34770011	      0.00000000
      0.04666667	     -5.25999254	      2.68171711	     -4.83328816	      2.23999745	      1.04037897	      1.00417020	     -7.78810351	     -3.45163569	     -2.64618178	     20.22806469	      0.35304633	      1.94818660	      5.90113654	      0.00000000	     29.09553230	      0.00294317	     -9.99142989	     38.29687899	      0.66840663	      4.27803468	     -7.04007921	      0.00000000
      0.05333333	     -6.01633015	      2.75605686	     -4.82084968	      2.24134658	      1.04194550	      1.00357555	     -7.50233319	     -3.70673699	     -2.79441674	     20.61541760	      0.35980691	     -0.01697823	      5.91106727	      0.00000000	     29.30098738	      0.34406399	     -9.96826369	     34.49211862	      0.60200104	      4.50128741	     -5.69143617	      0.00000000
      0.06000000	     -6.50662217	      2.84034015	     -4.84987182	      2.24250235	      1.04339368	      1.00303516	     -7.26882258	     -4.00135482	     -2.82105279	     21.41339655	      0.37373427	     -1.70898715	      5.69453363	      0.00000000	     29.11101673	      0.74465743	     -9.86508415	     30.58255328	      0.53376625	      4.66082342	     -4.38425366	      0.00000000
      0.06666667	     -6.95594024	      2.88610333	     -4.83952290	      2.24379595	      1.04441039	      1.00249824	     -6.97752154	     -4.23536478	     -2.78721996	     22.42219948	      0.39134121	     -3.23452266	      5.37657052	      0.00000000	     28.78514282	      1.13685371	     -9.65200845	     26.68990101	      0.46582665	      4.91459727	     -3.17137440	      0.00000000
      0.07333333	     -7.24518325	      2.92152624	     -4.82205077	      2.24500400	      1.04506091	      1.00200748	     -6.69604394	     -4.45164672	     -2.66540601	     23.73255707	      0.41421126	     -4.50591599	      4.91285858	      0.00000000	     28.24674099	      1.55548932	     -9.27479382	     22.88893706	      0.39948731	      5.10212398	     -2.25184005	      0.00000000
